<?xml version="1.0" encoding="UTF-8"?>
<svg xmlns="http://www.w3.org/2000/svg" xmlns:xlink="http://www.w3.org/1999/xlink" viewBox="0 0 24 24" width="24px" height="24px">
<g id="surface12927235">
<path style=" stroke:none;fill-rule:nonzero;fill:rgb(100%,100%,100%);fill-opacity:1;" d="M 12 2 C 6.476562 2 2 6.476562 2 12 C 2 17.394531 6.273438 21.78125 11.621094 21.980469 L 11.621094 15.039062 L 9.277344 15.039062 L 9.277344 12.3125 L 11.621094 12.3125 L 11.621094 10.308594 C 11.621094 7.984375 13.042969 6.71875 15.117188 6.71875 C 15.816406 6.714844 16.511719 6.753906 17.207031 6.824219 L 17.207031 9.253906 L 15.78125 9.253906 C 14.648438 9.253906 14.429688 9.785156 14.429688 10.574219 L 14.429688 12.308594 L 17.128906 12.308594 L 16.777344 15.035156 L 14.414062 15.035156 L 14.414062 21.695312 C 18.769531 20.613281 22 16.6875 22 12 C 22 6.476562 17.523438 2 12 2 Z M 12 2 "/>
</g>
</svg>
