<svg xmlns="http://www.w3.org/2000/svg" xmlns:xlink="http://www.w3.org/1999/xlink" version="1.1" x="0px" y="0px" viewBox="0 0 144.083 180" enable-background="new 0 0 144.083 144" xml:space="preserve"><path d="M120.34,106.541V46.603V36.541c0-0.829-0.672-1.5-1.5-1.5H88.17H57.5H26.83c-0.828,0-1.5,0.671-1.5,1.5v10.062v59.938  h-5.956v3h7.456H57.5h30.67h30.67h6.033v-3H120.34z M56,106.541H28.33V48.103H56V106.541z M86.67,106.541H59V48.103h27.67V106.541z   M117.34,106.541H89.67V48.103h27.67V106.541z M117.34,45.103H28.33v-7.062h89.01V45.103z"/><rect x="46.667" y="73.125" width="3" height="6.916"/><rect x="77.336" y="73.125" width="3" height="6.916"/><rect x="108.006" y="73.125" width="3" height="6.916"/><text x="0" y="159" fill="#000000" font-size="5px" font-weight="bold" font-family="'Helvetica Neue', Helvetica, Arial-Unicode, Arial, Sans-serif">Created by Chanut is Industries</text><text x="0" y="164" fill="#000000" font-size="5px" font-weight="bold" font-family="'Helvetica Neue', Helvetica, Arial-Unicode, Arial, Sans-serif">from the Noun Project</text></svg>