<svg xmlns="http://www.w3.org/2000/svg" viewBox="0 0 566.93 708.6624999999999" x="0px" y="0px"><title>a</title><g><path d="M478.965,274.886h-391a6.75,6.75,0,0,1-6.75-6.75v-34a6.75,6.75,0,0,1,6.75-6.75h391a6.75,6.75,0,0,1,6.75,6.75v34A6.75,6.75,0,0,1,478.965,274.886Zm-384.25-13.5h377.5v-20.5H94.715Z"/><path d="M451.965,478.886h-337a6.75,6.75,0,0,1-6.75-6.75v-204a6.75,6.75,0,0,1,6.75-6.75h337a6.75,6.75,0,0,1,6.75,6.75v204A6.75,6.75,0,0,1,451.965,478.886Zm-330.25-13.5h323.5v-190.5h-323.5Z"/><g><path d="M235.965,346.886h-82a6.75,6.75,0,0,1-6.75-6.75v-28a6.75,6.75,0,0,1,6.75-6.75h82a6.75,6.75,0,0,1,6.75,6.75v28A6.75,6.75,0,0,1,235.965,346.886Zm-75.25-13.5h68.5v-14.5h-68.5Z"/><path d="M153.971,478.886c-.121,0-.242,0-.363-.01a6.75,6.75,0,0,1-6.383-7.1l7-132a6.75,6.75,0,0,1,13.481.715l-7,132A6.751,6.751,0,0,1,153.971,478.886Z"/><path d="M235.215,478.886a6.75,6.75,0,0,1-6.735-6.393l-7-132a6.75,6.75,0,0,1,13.481-.715l7,132a6.75,6.75,0,0,1-6.383,7.1C235.457,478.883,235.335,478.886,235.215,478.886Z"/><path d="M231.721,419.219H157.465a6.75,6.75,0,1,1,0-13.5h74.256a6.75,6.75,0,0,1,0,13.5Z"/></g><g><path d="M409.3,346.886h-82a6.75,6.75,0,0,1-6.75-6.75v-28a6.75,6.75,0,0,1,6.75-6.75h82a6.75,6.75,0,0,1,6.75,6.75v28A6.75,6.75,0,0,1,409.3,346.886Zm-75.25-13.5h68.5v-14.5h-68.5Z"/><path d="M327.3,478.886c-.121,0-.241,0-.363-.01a6.75,6.75,0,0,1-6.383-7.1l7-132a6.75,6.75,0,1,1,13.48.715l-7,132A6.75,6.75,0,0,1,327.3,478.886Z"/><path d="M408.548,478.886a6.749,6.749,0,0,1-6.734-6.393l-7-132a6.75,6.75,0,1,1,13.48-.715l7,132a6.75,6.75,0,0,1-6.383,7.1C408.79,478.883,408.668,478.886,408.548,478.886Z"/><path d="M405.054,419.219H330.8a6.75,6.75,0,0,1,0-13.5h74.256a6.75,6.75,0,0,1,0,13.5Z"/></g><path d="M219.965,202.553a26.78,26.78,0,0,1-26.75-26.75V151.136a6.75,6.75,0,0,1,6.75-6.75h40a6.75,6.75,0,0,1,6.75,6.75V175.8A26.78,26.78,0,0,1,219.965,202.553Zm-13.25-44.667V175.8a13.25,13.25,0,0,0,26.5,0V157.886Z"/><path d="M219.965,240.886a6.75,6.75,0,0,1-6.75-6.75V195.8a6.75,6.75,0,0,1,13.5,0v38.333A6.75,6.75,0,0,1,219.965,240.886Z"/><path d="M336.8,202.553a26.78,26.78,0,0,1-26.75-26.75V151.136a6.75,6.75,0,0,1,6.75-6.75h40a6.75,6.75,0,0,1,6.75,6.75V175.8A26.78,26.78,0,0,1,336.8,202.553Zm-13.25-44.667V175.8a13.25,13.25,0,1,0,26.5,0V157.886Z"/><path d="M336.8,240.886a6.75,6.75,0,0,1-6.75-6.75V195.8a6.75,6.75,0,0,1,13.5,0v38.333A6.75,6.75,0,0,1,336.8,240.886Z"/><path d="M298.632,240.886H257.3a6.75,6.75,0,0,1-6.75-6.75V131.8a27.417,27.417,0,1,1,54.833,0V234.136A6.75,6.75,0,0,1,298.632,240.886Zm-34.583-13.5h27.833V131.8a13.917,13.917,0,1,0-27.833,0Z"/><path d="M277.965,117.886a6.75,6.75,0,0,1-6.75-6.75V86.273a6.75,6.75,0,0,1,13.5,0v24.863A6.75,6.75,0,0,1,277.965,117.886Z"/><path d="M293.049,91.219H262.882a6.75,6.75,0,0,1,0-13.5h30.167a6.75,6.75,0,0,1,0,13.5Z"/></g><text x="0" y="581.93" fill="#000000" font-size="5px" font-weight="bold" font-family="'Helvetica Neue', Helvetica, Arial-Unicode, Arial, Sans-serif">Created by Philipp Petzka</text><text x="0" y="586.93" fill="#000000" font-size="5px" font-weight="bold" font-family="'Helvetica Neue', Helvetica, Arial-Unicode, Arial, Sans-serif">from the Noun Project</text></svg>