<svg xmlns="http://www.w3.org/2000/svg" xmlns:xlink="http://www.w3.org/1999/xlink" viewBox="0 0 58 43.75" version="1.1" x="0px" y="0px"><title>living_room</title><desc>Created with Sketch.</desc><g stroke="none" stroke-width="1" fill="none" fill-rule="evenodd"><g transform="translate(-481.000000, -205.000000)" fill="#000000"><g transform="translate(481.000000, 205.000000)"><path d="M36,22 L36,24.5 C36,25.8782919 34.8784337,27 33.5053387,27 L6.49466128,27 C5.11876929,27 4,25.8786518 4,24.5 L4,22 L36,22 Z M3,20 C2.44771525,20 2,20.4477153 2,21 L2,24.5 C2,26.9821918 4.01316763,29 6.49466128,29 L33.5053387,29 C35.9830599,29 38,26.9828047 38,24.5 L38,21 C38,20.4477153 37.5522847,20 37,20 L3,20 L3,20 Z"/><path d="M9,31 L9,28 C9,27.4477153 8.55228475,27 8,27 C7.44771525,27 7,27.4477153 7,28 L7,31 C7,31.5522847 7.44771525,32 8,32 C8.55228475,32 9,31.5522847 9,31 L9,31 Z"/><path d="M33,31 L33,28 C33,27.4477153 32.5522847,27 32,27 C31.4477153,27 31,27.4477153 31,28 L31,31 C31,31.5522847 31.4477153,32 32,32 C32.5522847,32 33,31.5522847 33,31 L33,31 Z"/><path d="M7.04446672,13.7638188 L16.0729773,13.2327299 C17.6960208,13.1372568 19,14.3711692 19,15.9999433 L19,20 L4,20 L4,17 C4,15.3209842 5.37380759,13.8620929 7.04446672,13.7638188 Z M2,17 L2,21 C2,21.5522847 2.44771525,22 3,22 L20,22 C20.5522847,22 21,21.5522847 21,21 L21,15.9999433 C21,13.2220468 18.7289618,11.0730383 15.9555333,11.2361812 L6.92702268,11.7672701 C4.19866943,11.9277614 2,14.2626005 2,17 L2,17 Z"/><path d="M38,17 C38,14.2626005 35.8013306,11.9277614 33.0729773,11.7672701 L24.0444667,11.2361812 C21.2710382,11.0730383 19,13.2220468 19,15.9999433 L19,21 C19,21.5522847 19.4477153,22 20,22 L37,22 C37.5522847,22 38,21.5522847 38,21 L38,17 L38,17 Z M36,20 L21,20 L21,15.9999433 C21,14.3711692 22.3039792,13.1372568 23.9270227,13.2327299 L32.9555333,13.7638188 C34.6261924,13.8620929 36,15.3209842 36,17 L36,20 Z"/><path d="M47.9161501,2 L50.0838499,2 C50.7188319,2 51.3969685,2.54774511 51.5269193,3.16037017 L52.7999878,9 L45.2342191,9.00071785 L46.4730807,3.16037017 C46.6047447,2.53966842 47.2714045,2 47.9161501,2 Z M44.5166125,2.74536175 L43.0217659,9.79249579 C42.8898353,10.4144541 43.3642031,11 44,11 L54,11 C54.6357969,11 55.1101647,10.4144541 54.9782341,9.79249579 L53.4833875,2.74536175 C53.1571699,1.20747889 51.6622491,0 50.0838499,0 L47.9161501,0 C46.3270868,0 44.8443555,1.20028735 44.5166125,2.74536175 L44.5166125,2.74536175 Z"/><path d="M50,31 L50,10 C50,9.44771525 49.5522847,9 49,9 C48.4477153,9 48,9.44771525 48,10 L48,31 C48,31.5522847 48.4477153,32 49,32 C49.5522847,32 50,31.5522847 50,31 L50,31 Z"/><path d="M1,35 L57,35 C57.5522847,35 58,34.5522847 58,34 C58,33.4477153 57.5522847,33 57,33 L1,33 C0.44771525,33 0,33.4477153 0,34 C0,34.5522847 0.44771525,35 1,35 L1,35 Z"/></g></g></g><text x="0" y="50" fill="#000000" font-size="5px" font-weight="bold" font-family="'Helvetica Neue', Helvetica, Arial-Unicode, Arial, Sans-serif">Created by Andrejs Kirma</text><text x="0" y="55" fill="#000000" font-size="5px" font-weight="bold" font-family="'Helvetica Neue', Helvetica, Arial-Unicode, Arial, Sans-serif">from the Noun Project</text></svg>