<svg xmlns="http://www.w3.org/2000/svg" xmlns:xlink="http://www.w3.org/1999/xlink" version="1.1" x="0px" y="0px" viewBox="0 0 100 125" style="enable-background:new 0 0 100 100;" xml:space="preserve"><path d="M54.7,30.4H41.8c-0.6,0-1,0.4-1,1s0.4,1,1,1h12.9c0.6,0,1-0.4,1-1S55.2,30.4,54.7,30.4z"/><path d="M87.1,41.2c0-0.6-0.4-1-1-1H73.7v-2.9c0-0.6-0.4-1-1-1h-1c-0.1-2.2-0.7-11.1-6.8-17.2c-0.2-0.2-0.4-0.3-0.7-0.3H32.4  c-0.3,0-0.5,0.1-0.7,0.3c-6.1,6.1-6.7,15-6.8,17.2h-1.1c-0.6,0-1,0.4-1,1v2.9H10.4c-0.6,0-1,0.4-1,1s0.4,1,1,1h12.4v2.9  c0,0.6,0.4,1,1,1H25v26.9c-2.2,0.4-3.9,2.4-3.9,4.8c0,2.7,2.2,4.9,4.9,4.9c2.5,0,4.5-1.8,4.8-4.2h3.9h27.3h3.9  c0.3,2.4,2.4,4.2,4.8,4.2c2.7,0,4.9-2.2,4.9-4.9c0-2.4-1.7-4.4-4-4.8V46.1h1.1c0.6,0,1-0.4,1-1v-2.9h12.4  C86.6,42.2,87.1,41.7,87.1,41.2z M32.9,20.8h30.9c5.2,5.4,5.8,13.5,5.9,15.5H27C27,34.3,27.7,26.3,32.9,20.8z M25.9,80.6  c-1.6,0-2.9-1.3-2.9-2.9c0-1.3,0.8-2.3,1.9-2.7v2.4c0,0.6,0.4,1,1,1h2.7C28.4,79.7,27.3,80.6,25.9,80.6z M49.3,76.4V61h5.4  c0.6,0,1-0.4,1-1s-0.4-1-1-1H41.8c-0.6,0-1,0.4-1,1s0.4,1,1,1h5.4v15.4H35.6V53h25.3v23.4H49.3z M73.6,77.7c0,1.6-1.3,2.9-2.9,2.9  c-1.4,0-2.5-0.9-2.8-2.2h2.7c0.6,0,1-0.4,1-1V75C72.7,75.4,73.6,76.4,73.6,77.7z M69.5,76.4h-6.6V52c0-0.6-0.4-1-1-1H34.6  c-0.6,0-1,0.4-1,1v24.4H27V46.1h42.6V76.4z M71.7,44.1H24.8v-5.8h46.9V44.1z"/><circle cx="36.8" cy="41.2" r="0.9"/><circle cx="42.5" cy="41.2" r="0.9"/><circle cx="48.3" cy="41.2" r="0.9"/><circle cx="54" cy="41.2" r="0.9"/><circle cx="59.7" cy="41.2" r="0.9"/><text x="0" y="115" fill="#000000" font-size="5px" font-weight="bold" font-family="'Helvetica Neue', Helvetica, Arial-Unicode, Arial, Sans-serif">Created by Made by Made</text><text x="0" y="120" fill="#000000" font-size="5px" font-weight="bold" font-family="'Helvetica Neue', Helvetica, Arial-Unicode, Arial, Sans-serif">from the Noun Project</text></svg>