<svg xmlns="http://www.w3.org/2000/svg" xmlns:xlink="http://www.w3.org/1999/xlink" version="1.1" x="0px" y="0px" viewBox="0 0 512 640" style="enable-background:new 0 0 512 512;" xml:space="preserve"><g><path d="M462.694,341.983h-7.387c1.663-3.51,2.667-7.388,2.667-11.523c0-14.94-12.161-27.101-27.11-27.101H258.793   c-12.19,0-23.637-5.966-30.631-15.958c-8.231-11.723-24.531-14.73-36.369-6.709c-0.01,0.01-0.029,0.019-0.038,0.029   c-0.847,0.58-1.675,1.218-2.474,1.903c-10.705,9.297-12.161,25.255-3.321,36.331l14.873,18.651   c1.305,1.639,2.905,2.922,4.368,4.377h-12.938l-62.79-76.957l32-66.501c4.209-3.884,13.57-5.385,23.621-0.533   c10.458,5.034,15.196,13.798,14.359,19.488c-0.504,3.378,1.247,6.68,4.32,8.164c3.055,1.484,6.747,0.79,9.078-1.694   c3.939-4.206,13.741-5.957,24.189-0.913c10.638,5.129,16.881,15.168,13.626,21.924c-0.466,0.971-0.715,1.991-0.764,3.002   c-0.149,3.037,1.494,6.009,4.399,7.408c1.094,0.523,2.246,0.771,3.378,0.771c2.902,0,5.69-1.618,7.032-4.406   c28.527-59.177,5.554-129.934-50.948-161.67l5.349-11.096c1.865-3.882,0.238-8.536-3.635-10.41   c-3.873-1.837-8.536-0.228-10.41,3.635l-5.345,11.088c-27.972-11.402-58.732-12.356-87.48-2.315   c-31.24,10.914-56.361,33.343-70.73,63.155c-1.865,3.882-0.238,8.536,3.635,10.41c3.92,1.875,8.545,0.257,10.41-3.635   c1.884-3.92,6.347-5.272,8.84-5.728c5.091-0.942,11.247,0.057,16.786,2.731c10.448,5.034,15.196,13.807,14.369,19.498   c-0.504,3.369,1.256,6.67,4.32,8.155c3.064,1.494,6.747,0.79,9.078-1.694c3.92-4.206,13.76-5.957,24.189-0.914   c10.079,4.852,14.717,13.111,14.298,18.802l-28.844,59.943l-5.142-6.302l0.837-0.599c3.15-2.255,5.234-5.595,5.862-9.401   c0.628-3.816-0.276-7.651-2.541-10.791L94.61,192.702c-2.702-3.749-7.08-5.995-11.714-5.995H42.788   c-5.51,0-10.458,3.055-12.922,7.984c-2.455,4.929-1.932,10.724,1.38,15.12l66.159,88.071l-20.073,44.101H45.205   c-10.458,0-18.965,8.507-18.965,18.974v18.441c0,10.458,8.507,18.965,18.965,18.965h80.81l-48.562,76.401   c-1.532,2.398-1.627,5.433-0.257,7.927c1.37,2.493,3.987,4.044,6.832,4.044h44.685c2.674,0,5.167-1.37,6.594-3.635l53.486-84.737   h130.738l53.486,84.737c1.427,2.265,3.92,3.635,6.594,3.635h44.685c2.845,0,5.462-1.551,6.832-4.044   c1.37-2.493,1.275-5.529-0.257-7.927l-48.562-76.401h80.382c10.458,0,18.965-8.507,18.965-18.965v-18.441   C481.659,350.49,473.152,341.983,462.694,341.983z M109.321,155.943c-3.369-8.916-11.019-17.1-21.363-22.086   c-5.912-2.858-12.188-4.322-18.265-4.518c12.467-15.212,28.655-26.996,47.688-33.65c27.291-9.544,56.704-7.898,82.758,4.682   c26.063,12.561,45.666,34.523,55.21,61.833c6.653,19.034,7.514,39.036,3.382,58.258c-3.853-4.508-8.809-8.525-14.915-11.47   c-10.324-4.986-21.486-5.881-30.583-2.959c-3.369-8.916-11.019-17.1-21.363-22.086c-10.324-4.967-21.467-5.852-30.593-2.959   c-3.369-8.916-11.019-17.1-21.363-22.086C129.57,153.926,118.428,153.05,109.321,155.943z M213.032,327.891l-14.882-18.66   c-3.606-4.52-3.016-11.038,1.351-14.825l1.085-0.837c4.824-3.264,11.457-2.008,14.806,2.779c9.906,14.15,26.13,22.6,43.401,22.6   h172.071c6.356,0,11.523,5.167,11.523,11.514c0,6.356-5.167,11.523-11.523,11.523H242.274   C230.817,341.983,220.159,336.845,213.032,327.891z M81.964,201.818l23.266,30.288l-7.603,5.433   c-1.751,1.247-2.912,3.169-3.197,5.3c-0.285,2.141,0.324,4.292,1.684,5.966l76.022,93.177h-22.102L45.081,202.265L81.964,201.818z    M108.073,312.085l22.459,29.898H94.464L108.073,312.085z M124.413,471.149H98.216l46.26-72.785h25.88L124.413,471.149z    M410.111,471.149h-26.197l-45.944-72.785h25.88L410.111,471.149z M466.072,379.399c0,1.865-1.513,3.378-3.378,3.378H45.205   c-1.865,0-3.378-1.513-3.378-3.378v-18.441c0-1.865,1.513-3.388,3.378-3.388h34.523c0.898,0,3.53,0,4.157,0h158.389h188.591h31.83   c1.865,0,3.378,1.523,3.378,3.388V379.399z"/><path d="M400.281,148.882c21.039,0,38.148-17.109,38.148-38.139s-17.109-38.139-38.148-38.139   c-21.03,0-38.139,17.109-38.139,38.139S379.251,148.882,400.281,148.882z M400.281,88.192c12.437,0,22.562,10.115,22.562,22.552   s-10.125,22.552-22.562,22.552s-22.552-10.115-22.552-22.552S387.844,88.192,400.281,88.192z"/><path d="M400.281,68.808c4.301,0,7.793-3.492,7.793-7.793V33.058c0-4.301-3.492-7.793-7.793-7.793   c-4.301,0-7.793,3.492-7.793,7.793v27.957C392.488,65.316,395.98,68.808,400.281,68.808z"/><path d="M359.611,81.093c1.523,1.523,3.511,2.284,5.51,2.284c1.998,0,3.987-0.761,5.51-2.284c3.045-3.045,3.045-7.974,0-11.019   L350.857,50.3c-3.045-3.045-7.974-3.045-11.019,0s-3.045,7.974,0,11.019L359.611,81.093z"/><path d="M322.595,118.537h27.957c4.301,0,7.793-3.492,7.793-7.793s-3.492-7.793-7.793-7.793h-27.957   c-4.301,0-7.793,3.492-7.793,7.793S318.294,118.537,322.595,118.537z"/><path d="M359.611,140.394l-19.773,19.773c-3.045,3.045-3.045,7.974,0,11.019c1.522,1.523,3.511,2.284,5.51,2.284   s3.987-0.761,5.51-2.284l19.774-19.774c3.045-3.045,3.045-7.974,0-11.019C367.585,137.349,362.656,137.349,359.611,140.394z"/><path d="M392.488,160.472v27.957c0,4.301,3.492,7.793,7.793,7.793c4.301,0,7.793-3.492,7.793-7.793v-27.957   c0-4.301-3.492-7.793-7.793-7.793C395.98,152.679,392.488,156.171,392.488,160.472z"/><path d="M429.941,140.394c-3.045,3.035-3.045,7.974,0,11.019l19.764,19.774c1.522,1.523,3.511,2.284,5.51,2.284   s3.987-0.761,5.51-2.284c3.045-3.035,3.045-7.974,0-11.019l-19.764-19.773C437.915,137.349,432.986,137.349,429.941,140.394z"/><path d="M477.967,102.95H450.01c-4.301,0-7.793,3.492-7.793,7.793s3.492,7.793,7.793,7.793h27.957c4.301,0,7.793-3.492,7.793-7.793   S482.268,102.95,477.967,102.95z"/><path d="M435.451,83.377c1.998,0,3.987-0.761,5.51-2.284l19.764-19.774c3.045-3.045,3.045-7.984,0-11.019   c-3.045-3.045-7.974-3.045-11.019,0l-19.764,19.774c-3.045,3.045-3.045,7.984,0,11.019   C431.464,82.615,433.453,83.377,435.451,83.377z"/><path d="M170.183,229.67c-15.891,0-28.823,12.932-28.823,28.823c0,15.901,12.932,28.832,28.823,28.832s28.823-12.932,28.823-28.832   C199.006,242.602,186.074,229.67,170.183,229.67z M170.183,271.739c-7.298,0-13.236-5.947-13.236-13.246   c0-7.299,5.938-13.236,13.236-13.236c7.299,0,13.236,5.938,13.236,13.236C183.419,265.792,177.482,271.739,170.183,271.739z"/></g><text x="0" y="527" fill="#000000" font-size="5px" font-weight="bold" font-family="'Helvetica Neue', Helvetica, Arial-Unicode, Arial, Sans-serif">Created by Econceptive</text><text x="0" y="532" fill="#000000" font-size="5px" font-weight="bold" font-family="'Helvetica Neue', Helvetica, Arial-Unicode, Arial, Sans-serif">from the Noun Project</text></svg>