<svg xmlns="http://www.w3.org/2000/svg" data-name="ICON Black" viewBox="0 0 32 40" x="0px" y="0px"><title>Concierge service</title><path d="M16.009,15.876c.118,0,.237,0,.356-.012A5.294,5.294,0,0,0,21.2,10.516V3a.5.5,0,0,0-.5-.5H11.3a.5.5,0,0,0-.5.5v7.68a5.191,5.191,0,0,0,5.205,5.2ZM20.2,3.5V7.478H11.8v-1.1h6.53a.5.5,0,0,0,0-1H11.8V3.5ZM11.8,8.478H20.2v2.038a4.292,4.292,0,0,1-3.9,4.35,4.211,4.211,0,0,1-3.266-1.218A4.163,4.163,0,0,1,11.8,10.68Zm2.076,3.411a.5.5,0,1,1,.978-.2,1.166,1.166,0,0,0,2.284,0,.5.5,0,1,1,.978.2,2.164,2.164,0,0,1-4.24,0Zm6.226,5.674H11.894a5.506,5.506,0,0,0-5.5,5.5V29a.5.5,0,0,0,.5.5H25.106a.5.5,0,0,0,.5-.5V23.063A5.506,5.506,0,0,0,20.106,17.563Zm-12.712,5.5a4.5,4.5,0,0,1,4.5-4.5H14.25V28.5H10.934V23.25a.5.5,0,0,0-1,0V28.5H7.394ZM15.25,28.5V18.563h1.5V28.5Zm9.356,0h-2.54V23.25a.5.5,0,0,0-1,0V28.5H17.75V18.563h2.356a4.5,4.5,0,0,1,4.5,4.5Z"/><text x="0" y="47" fill="#000000" font-size="5px" font-weight="bold" font-family="'Helvetica Neue', Helvetica, Arial-Unicode, Arial, Sans-serif">Created by Philipp Petzka</text><text x="0" y="52" fill="#000000" font-size="5px" font-weight="bold" font-family="'Helvetica Neue', Helvetica, Arial-Unicode, Arial, Sans-serif">from the Noun Project</text></svg>