<svg xmlns:dc="http://purl.org/dc/elements/1.1/" xmlns:cc="http://creativecommons.org/ns#" xmlns:rdf="http://www.w3.org/1999/02/22-rdf-syntax-ns#" xmlns:svg="http://www.w3.org/2000/svg" xmlns="http://www.w3.org/2000/svg" xmlns:sodipodi="http://sodipodi.sourceforge.net/DTD/sodipodi-0.dtd" xmlns:inkscape="http://www.inkscape.org/namespaces/inkscape" version="1.1" x="0px" y="0px" viewBox="0 0 100 125"><g transform="translate(0,-952.36218)"><path style="color:#000000;enable-background:accumulate;" d="m 29,966.36217 c -3.289404,0 -6,2.74878 -6,6.08451 l 0,59.83102 c 0,3.3357 2.710596,6.0845 6,6.0845 l 42,0 c 3.289404,0 6,-2.7488 6,-6.0845 l 0,-59.83102 c 0,-3.33573 -2.710596,-6.08451 -6,-6.08451 l -42,0 z m 0,4.05634 19,0 0,63.88729 -19,0 c -1.142593,0 -2,-0.8694 -2,-2.0281 l 0,-59.83102 c 0,-1.15869 0.857407,-2.02819 2,-2.02819 z m 23,0 19,0 c 1.142593,0 2,0.86948 2,2.02817 l 0,59.83102 c 0,1.1587 -0.857407,2.0281 -2,2.0281 l -19,0 0,-63.88729 z m -15,25.35211 -7,12.16898 14,0 -7,-12.16898 z m 19,1.01409 7,12.16899 7,-12.16899 -14,0 z" fill="#000000" stroke="none" marker="none" visibility="visible" display="inline" overflow="visible"/></g><text x="0" y="115" fill="#000000" font-size="5px" font-weight="bold" font-family="'Helvetica Neue', Helvetica, Arial-Unicode, Arial, Sans-serif">Created by joeartcon</text><text x="0" y="120" fill="#000000" font-size="5px" font-weight="bold" font-family="'Helvetica Neue', Helvetica, Arial-Unicode, Arial, Sans-serif">from the Noun Project</text></svg>