<svg xmlns="http://www.w3.org/2000/svg" viewBox="0 0 64 80" x="0px" y="0px"><title>laundry</title><g><path d="M50,4H14a2,2,0,0,0-2,2V58a2,2,0,0,0,2,2H50a2,2,0,0,0,2-2V6A2,2,0,0,0,50,4ZM14,14H50V50H14ZM50,6v6H14V6ZM14,58V52H50v6Z"/><path d="M33.25,17.5a14.51,14.51,0,0,0-13.77,10H17.25a1,1,0,0,0-1,1v7a1,1,0,0,0,1,1h2.23a14.49,14.49,0,1,0,13.77-19Zm-15,12h5.33a9.63,9.63,0,0,0,0,5H18.25Zm7.63,5.62v0a7.94,7.94,0,0,1,0-6.2v0a8,8,0,1,1,0,6.24Zm7.37,9.38a12.52,12.52,0,0,1-11.66-8h2.74a10,10,0,1,0,0-9H21.59a12.5,12.5,0,1,1,11.66,17Z"/><path d="M47,10h0a1,1,0,1,0-1-1A1,1,0,0,0,47,10Z"/><path d="M44,10h0a1,1,0,1,0-1-1A1,1,0,0,0,44,10Z"/><path d="M41,10h0a1,1,0,1,0-1-1A1,1,0,0,0,41,10Z"/><path d="M38,10h0a1,1,0,1,0-1-1A1,1,0,0,0,38,10Z"/><path d="M22,55H16a1,1,0,0,0,0,2h6a1,1,0,0,0,0-2Z"/><path d="M35,10h0a1,1,0,1,0-1-1A1,1,0,0,0,35,10Z"/></g><text x="0" y="79" fill="#000000" font-size="5px" font-weight="bold" font-family="'Helvetica Neue', Helvetica, Arial-Unicode, Arial, Sans-serif">Created by LUTFI GANI AL ACHMAD</text><text x="0" y="84" fill="#000000" font-size="5px" font-weight="bold" font-family="'Helvetica Neue', Helvetica, Arial-Unicode, Arial, Sans-serif">from the Noun Project</text></svg>