<svg xmlns="http://www.w3.org/2000/svg" xmlns:xlink="http://www.w3.org/1999/xlink" version="1.1" x="0px" y="0px" viewBox="0 0 100 125" style="enable-background:new 0 0 100 100;" xml:space="preserve"><g><path d="M72,64.2L70.2,66c-3.3,3.3-8.7,3.3-12,0l-1.8-1.8c-4.5-4.5-11.9-4.5-16.4,0c-3.3,3.3-8.7,3.3-12,0   c-4.5-4.5-11.9-4.5-16.4,0c-0.6,0.6-0.6,1.6,0,2.2s1.6,0.6,2.2,0c3.3-3.3,8.7-3.3,12,0c4.5,4.5,11.9,4.5,16.4,0   c3.3-3.3,8.7-3.3,12,0l1.8,1.8c2.3,2.2,5.2,3.4,8.2,3.4s5.9-1.1,8.2-3.4l1.8-1.8c3.3-3.3,8.7-3.3,12,0c0.6,0.6,1.6,0.6,2.2,0   s0.6-1.6,0-2.2C83.9,59.7,76.5,59.7,72,64.2z"/><path d="M72,80.1l-1.8,1.8c-3.3,3.3-8.7,3.3-12,0l-1.8-1.8c-4.5-4.5-11.9-4.5-16.4,0c-3.3,3.3-8.7,3.3-12,0   c-4.5-4.5-11.9-4.5-16.4,0c-0.6,0.6-0.6,1.6,0,2.2s1.6,0.6,2.2,0c3.3-3.3,8.7-3.3,12,0c4.5,4.5,11.9,4.5,16.4,0   c3.3-3.3,8.7-3.3,12,0l1.8,1.8c2.3,2.3,5.2,3.4,8.2,3.4s5.9-1.1,8.2-3.4l1.8-1.8c3.3-3.3,8.7-3.3,12,0c0.6,0.6,1.6,0.6,2.2,0   s0.6-1.6,0-2.2C83.9,75.6,76.5,75.6,72,80.1z"/><path d="M87.3,22.7c0.9,0,1.6-0.7,1.6-1.6v-1.8c0-3.8-3.1-6.9-6.9-6.9s-6.9,3.1-6.9,6.9v7.3H53.3v-7.3c0-2.1,1.7-3.7,3.8-3.7   s3.8,1.7,3.8,3.7v1.8c0,0.9,0.7,1.6,1.6,1.6c0.9,0,1.6-0.7,1.6-1.6v-1.8c0-3.8-3.1-6.9-6.9-6.9s-6.9,3.1-6.9,6.9v25.8   c-3.6-0.6-7.4,0.4-10.2,3.2c-3.3,3.3-8.7,3.3-12,0c-4.5-4.5-11.9-4.5-16.4,0c-0.6,0.6-0.6,1.6,0,2.2c0.6,0.6,1.6,0.6,2.2,0   c3.3-3.3,8.7-3.3,12,0c4.5,4.5,11.9,4.5,16.4,0c3.3-3.3,8.7-3.3,12,0l1.8,1.8c2.3,2.3,5.2,3.4,8.2,3.4s5.9-1.1,8.2-3.4l1.8-1.8   c3.3-3.3,8.7-3.3,12,0c0.6,0.6,1.6,0.6,2.2,0s0.6-1.6,0-2.2c-2.8-2.8-6.6-3.8-10.2-3.2V19.4c0-2.1,1.7-3.7,3.8-3.7   c2.1,0,3.8,1.7,3.8,3.7v1.8C85.8,22,86.5,22.7,87.3,22.7z M75.1,29.8v7.5H53.3v-7.5H75.1z M72,48.3l-1.8,1.8c-3.3,3.3-8.7,3.3-12,0   l-1.8-1.8c-0.9-0.9-2-1.6-3.1-2.2c0-0.1,0.1-0.2,0.1-0.3v-5.5h21.8v5.5c0,0.1,0,0.2,0.1,0.3C74,46.7,72.9,47.4,72,48.3z"/></g><text x="0" y="115" fill="#000000" font-size="5px" font-weight="bold" font-family="'Helvetica Neue', Helvetica, Arial-Unicode, Arial, Sans-serif">Created by Nakul Dhaka</text><text x="0" y="120" fill="#000000" font-size="5px" font-weight="bold" font-family="'Helvetica Neue', Helvetica, Arial-Unicode, Arial, Sans-serif">from the Noun Project</text></svg>