<svg xmlns="http://www.w3.org/2000/svg" data-name="Layer 1" viewBox="0 0 64 80" x="0px" y="0px"><title>Hotel &amp;amp; Travel Outline</title><path d="M55,46H9a1,1,0,0,1-1-1V33a5,5,0,0,1,5-5H51a5,5,0,0,1,5,5V45A1,1,0,0,1,55,46ZM10,44H54V33a3,3,0,0,0-3-3H13a3,3,0,0,0-3,3Z"/><path d="M51,30H13a1,1,0,0,1-1-1V15a1,1,0,0,1,1-1H51a1,1,0,0,1,1,1V29A1,1,0,0,1,51,30ZM14,28H50V16H14Z"/><path d="M55,37H9a1,1,0,0,1,0-2H55a1,1,0,0,1,0,2Z"/><path d="M13,50H9a1,1,0,0,1-1-1V45a1,1,0,0,1,1-1h4a1,1,0,0,1,1,1v4A1,1,0,0,1,13,50Zm-3-2h2V46H10Z"/><path d="M55,50H51a1,1,0,0,1-1-1V45a1,1,0,0,1,1-1h4a1,1,0,0,1,1,1v4A1,1,0,0,1,55,50Zm-3-2h2V46H52Z"/><path d="M29,30H18a1,1,0,0,1-1-1V25a3,3,0,0,1,3-3h7a3,3,0,0,1,3,3v4A1,1,0,0,1,29,30ZM19,28h9V25a1,1,0,0,0-1-1H20a1,1,0,0,0-1,1Z"/><path d="M46,30H35a1,1,0,0,1-1-1V25a3,3,0,0,1,3-3h7a3,3,0,0,1,3,3v4A1,1,0,0,1,46,30ZM36,28h9V25a1,1,0,0,0-1-1H37a1,1,0,0,0-1,1Z"/><text x="0" y="79" fill="#000000" font-size="5px" font-weight="bold" font-family="'Helvetica Neue', Helvetica, Arial-Unicode, Arial, Sans-serif">Created by Mutualism</text><text x="0" y="84" fill="#000000" font-size="5px" font-weight="bold" font-family="'Helvetica Neue', Helvetica, Arial-Unicode, Arial, Sans-serif">from the Noun Project</text></svg>