<svg xmlns="http://www.w3.org/2000/svg" xmlns:xlink="http://www.w3.org/1999/xlink" version="1.1" x="0px" y="0px" viewBox="0 0 1024 1280" style="enable-background:new 0 0 1024 1024;" xml:space="preserve"><g><g><g><path d="M858.08,595.43c-24.25,0-48.51,0-72.76,0c-16.45,0-32.91,0-49.36,0c-29.05,0-58.09,0-87.14,0c-18.11,0-36.21,0-54.32,0     c-11.27,0-22.54,0-33.81,0c-25.2,0-50.4,0-75.6,0c-32.41,0-64.82,0-97.24,0c-32.91,0-65.82,0-98.72,0c-26.69,0-53.38,0-80.06,0     c-13.75,0-27.51-0.17-41.25,0c-0.63,0.01-1.26,0-1.89,0c-7.85,0-15.36,6.9-15,15c0.36,8.13,6.59,15,15,15c9.53,0,19.07,0,28.6,0     c24.12,0,48.25,0,72.37,0c32,0,64,0,96,0c33.16,0,66.31,0,99.47,0c27.6,0,55.2,0,82.8,0c15.32,0,30.65,0,45.97,0     c11.7,0,23.39,0,35.09,0c31.34,0,62.69,0,94.03,0c14.34,0,28.69,0,43.03,0c29.4,0,58.8,0,88.2,0c2.2,0,4.4,0,6.59,0     c7.85,0,15.36-6.9,15-15C872.71,602.31,866.49,595.43,858.08,595.43L858.08,595.43z"/></g></g><g><g><path d="M287.52,610.43c0,35.87,0,71.75,0,107.62c0,56.7,0,113.4,0,170.1c0,12.96,0,25.92,0,38.89c0,7.85,6.9,15.36,15,15     c8.13-0.36,15-6.59,15-15c0-35.87,0-71.75,0-107.62c0-56.7,0-113.4,0-170.1c0-12.96,0-25.92,0-38.89c0-7.85-6.9-15.36-15-15     C294.39,595.8,287.52,602.02,287.52,610.43L287.52,610.43z"/></g></g><g><g><path d="M426.41,610.43c0,35.87,0,71.75,0,107.62c0,56.7,0,113.4,0,170.1c0,12.96,0,25.92,0,38.89c0,7.85,6.9,15.36,15,15     c8.13-0.36,15-6.59,15-15c0-35.87,0-71.75,0-107.62c0-56.7,0-113.4,0-170.1c0-12.96,0-25.92,0-38.89c0-7.85-6.9-15.36-15-15     C433.29,595.8,426.41,602.02,426.41,610.43L426.41,610.43z"/></g></g><g><g><path d="M566.31,610.43c0,35.87,0,71.75,0,107.62c0,56.7,0,113.4,0,170.1c0,12.96,0,25.92,0,38.89c0,7.85,6.9,15.36,15,15     c8.13-0.36,15-6.59,15-15c0-35.87,0-71.75,0-107.62c0-56.7,0-113.4,0-170.1c0-12.96,0-25.92,0-38.89c0-7.85-6.9-15.36-15-15     C573.18,595.8,566.31,602.02,566.31,610.43L566.31,610.43z"/></g></g><g><g><path d="M705.2,610.43c0,35.87,0,71.75,0,107.62c0,56.7,0,113.4,0,170.1c0,12.96,0,25.92,0,38.89c0,7.85,6.9,15.36,15,15     c8.13-0.36,15-6.59,15-15c0-35.87,0-71.75,0-107.62c0-56.7,0-113.4,0-170.1c0-12.96,0-25.92,0-38.89c0-7.85-6.9-15.36-15-15     C712.08,595.8,705.2,602.02,705.2,610.43L705.2,610.43z"/></g></g><g><g><path d="M282.05,497.2c0-30.54,0-61.09,0-91.63c0-58.77,0-117.53,0-176.3c0-39.02,0-78.03,0-117.05c0-0.69,0.34-2.48,0-3.11     c-0.37-0.67-0.66,1.66-0.85,2.11c0.35-0.85,1.57-1.78-0.09-0.12c-2.78,2.78,1.5-2.29-0.98,0.71c-4.15,5.03-1.54-0.06-1.2,0.22     c0.92,0.77,5.88,0,7.01,0c14.51,0,29.03,0,43.54,0c53.05,0,106.11,0,159.16,0c57.45,0,114.9,0,172.35,0c19.61,0,39.22,0,58.83,0     c5.57,0,11.14,0,16.71,0c0.8,0,6.23,0.66,6.78,0c-0.35,0.41-2.02-0.72-2.34-0.85c2.54,1.06,0.3,0.38-0.25-0.6     c-0.12-0.17-0.24-0.34-0.36-0.51c0.85,1.5,0.85,1.51,0.01,0.04c-1.43-1.11,0.07-1.72-0.22-0.87c-0.31,0.9,0,2.45,0,3.4     c0,5.37,0,10.75,0,16.12c0,20.51,0,41.02,0,61.53c0,58.39,0,116.78,0,175.16c0,41.76,0,83.53,0,125.29c0,2.15,0,4.3,0,6.44     c0,7.85,6.9,15.36,15,15c8.13-0.36,15-6.59,15-15c0-31.12,0-62.24,0-93.37c0-59.74,0-119.47,0-179.21c0-37.9,0-75.81,0-113.71     c0-15.58-10.69-28.33-26.8-28.88c-2.1-0.07-4.21,0-6.3,0c-14.13,0-28.26,0-42.39,0c-53.7,0-107.4,0-161.1,0     c-57.97,0-115.94,0-173.91,0c-19.55,0-39.11,0-58.66,0c-7.79,0-15.73-0.44-23.52,0.08c-15.8,1.06-25.42,14.13-25.42,29.14     c0,4.92,0,9.84,0,14.76c0,19.78,0,39.56,0,59.34c0,59.08,0,118.16,0,177.24c0,42.67,0,85.34,0,128.01c0,2.19,0,4.39,0,6.58     c0,7.85,6.9,15.36,15,15C275.17,511.84,282.05,505.61,282.05,497.2L282.05,497.2z"/></g></g><g><g><path d="M496.1,97.04c0,13.3,0,26.6,0,39.91c0,31.77,0,63.54,0,95.32c0,38.6,0,77.19,0,115.79c0,33.24,0,66.48,0,99.72     c0,16.22-0.51,32.53,0,48.74c0.01,0.23,0,0.46,0,0.69c0,7.85,6.9,15.36,15,15c8.13-0.36,15-6.59,15-15c0-13.3,0-26.6,0-39.91     c0-31.77,0-63.54,0-95.32c0-38.6,0-77.19,0-115.79c0-33.24,0-66.48,0-99.72c0-16.22,0.51-32.53,0-48.74c-0.01-0.23,0-0.46,0-0.69     c0-7.85-6.9-15.36-15-15C502.97,82.41,496.1,88.63,496.1,97.04L496.1,97.04z"/></g></g><g><g><path d="M267.05,298.47c16.16,0,32.32,0,48.48,0c38.82,0,77.64,0,116.46,0c46.98,0,93.96,0,140.94,0c40.64,0,81.29,0,121.93,0     c19.78,0,39.65,0.55,59.43,0c0.29-0.01,0.58,0,0.87,0c7.85,0,15.36-6.9,15-15c-0.36-8.13-6.59-15-15-15c-16.16,0-32.32,0-48.48,0     c-38.82,0-77.64,0-116.46,0c-46.98,0-93.96,0-140.94,0c-40.64,0-81.29,0-121.93,0c-19.78,0-39.65-0.55-59.43,0     c-0.29,0.01-0.58,0-0.87,0c-7.85,0-15.36,6.9-15,15C252.41,291.6,258.64,298.47,267.05,298.47L267.05,298.47z"/></g></g><g><g><path d="M150.92,565.47c0,11.99,0,23.97,0,35.96c0,28.78,0,57.57,0,86.35c0,34.82,0,69.65,0,104.47c0,30.1,0,60.21,0,90.31     c0,14.59-0.5,29.29,0,43.87c0.01,0.2,0,0.41,0,0.61c0,7.85,6.9,15.36,15,15c8.13-0.36,15-6.59,15-15c0-11.99,0-23.97,0-35.96     c0-28.78,0-57.57,0-86.35c0-34.82,0-69.65,0-104.47c0-30.1,0-60.21,0-90.31c0-14.59,0.5-29.29,0-43.87c-0.01-0.2,0-0.41,0-0.61     c0-7.85-6.9-15.36-15-15C157.79,550.83,150.92,557.06,150.92,565.47L150.92,565.47z"/></g></g><g><g><path d="M873.08,927.04c0-12.02,0-24.03,0-36.05c0-28.68,0-57.36,0-86.04c0-34.85,0-69.71,0-104.56c0-30,0-60,0-89.99     c0-14.63,0.5-29.36,0-43.98c-0.01-0.2,0-0.41,0-0.61c0-7.85-6.9-15.36-15-15c-8.13,0.36-15,6.59-15,15c0,12.02,0,24.03,0,36.05     c0,28.68,0,57.36,0,86.04c0,34.85,0,69.71,0,104.56c0,30,0,60,0,89.99c0,14.63-0.5,29.36,0,43.98c0.01,0.2,0,0.41,0,0.61     c0,7.85,6.9,15.36,15,15C866.21,941.68,873.08,935.45,873.08,927.04L873.08,927.04z"/></g></g><g><g><path d="M120.95,942.04c6.96,0,13.91,0,20.87,0c18.93,0,37.86,0,56.8,0c28.14,0,56.29,0,84.43,0c34.2,0,68.4,0,102.6,0     c37.46,0,74.91,0,112.37,0c37.81,0,75.62,0,113.43,0c35.26,0,70.53,0,105.79,0c29.93,0,59.86,0,89.78,0c21.42,0,42.84,0,64.26,0     c10.14,0,20.31,0.21,30.46,0c0.44-0.01,0.88,0,1.31,0c7.85,0,15.36-6.9,15-15c-0.36-8.13-6.59-15-15-15c-6.96,0-13.91,0-20.87,0     c-18.93,0-37.86,0-56.8,0c-28.14,0-56.29,0-84.43,0c-34.2,0-68.4,0-102.6,0c-37.46,0-74.91,0-112.37,0c-37.81,0-75.62,0-113.43,0     c-35.26,0-70.53,0-105.79,0c-29.93,0-59.86,0-89.78,0c-21.42,0-42.84,0-64.26,0c-10.14,0-20.31-0.21-30.46,0     c-0.44,0.01-0.88,0-1.31,0c-7.85,0-15.36,6.9-15,15C106.32,935.17,112.55,942.04,120.95,942.04L120.95,942.04z"/></g></g></g><text x="0" y="1039" fill="#000000" font-size="5px" font-weight="bold" font-family="'Helvetica Neue', Helvetica, Arial-Unicode, Arial, Sans-serif">Created by shashank singh</text><text x="0" y="1044" fill="#000000" font-size="5px" font-weight="bold" font-family="'Helvetica Neue', Helvetica, Arial-Unicode, Arial, Sans-serif">from the Noun Project</text></svg>