<svg xmlns="http://www.w3.org/2000/svg" data-name="Layer 1" viewBox="0 0 100 125" x="0px" y="0px"><title>park iconsv2</title><path d="M69.38,56H68.6a5.1,5.1,0,0,0-5.1,5.1V74.59A5.41,5.41,0,0,0,68.91,80h.17a5.41,5.41,0,0,0,5.41-5.41V61.14a5.14,5.14,0,0,0-.37-1.9A5.07,5.07,0,0,0,69.38,56Zm-1.8,4.69a1.1,1.1,0,0,1,1-.69h.78a1.12,1.12,0,0,1,1,.74,1.09,1.09,0,0,1,.08.4V70h-3V61.1A1.1,1.1,0,0,1,67.58,60.69Zm2.51,14.89a1.41,1.41,0,0,1-1,.41h-.17a1.41,1.41,0,0,1-1.41-1.41V74h3v.59A1.41,1.41,0,0,1,70.09,75.59Z"/><path d="M31.38,56H30.6a5.1,5.1,0,0,0-5.1,5.1V74.59A5.41,5.41,0,0,0,30.91,80h.17a5.41,5.41,0,0,0,5.41-5.41V61.14a5.14,5.14,0,0,0-.37-1.9A5.07,5.07,0,0,0,31.38,56Zm-1.8,4.69a1.1,1.1,0,0,1,1-.69h.78a1.12,1.12,0,0,1,1,.74,1.09,1.09,0,0,1,.08.4V62h-3v-.9A1.1,1.1,0,0,1,29.58,60.69Zm2.51,14.89a1.41,1.41,0,0,1-1,.41h-.17a1.41,1.41,0,0,1-1.41-1.41V66h3v8.59A1.41,1.41,0,0,1,32.09,75.59Z"/><path d="M78.5,16a2,2,0,0,0-2,2V48h-15V18a2,2,0,0,0-4,0V48h-15V18a2,2,0,0,0-4,0V48h-15V18a2,2,0,0,0-4,0V82a2,2,0,0,0,4,0V52h15V82a2,2,0,0,0,4,0V52h15V82a2,2,0,0,0,4,0V52h15V82a2,2,0,0,0,4,0V18A2,2,0,0,0,78.5,16Z"/><path d="M68.62,44h.78a5.1,5.1,0,0,0,5.1-5.1V25.41A5.41,5.41,0,0,0,69.09,20h-.17a5.41,5.41,0,0,0-5.41,5.41V38.86a5.16,5.16,0,0,0,.37,1.9A5.07,5.07,0,0,0,68.62,44Zm1.8-4.69a1.1,1.1,0,0,1-1,.69h-.78a1.12,1.12,0,0,1-1-.74,1.09,1.09,0,0,1-.08-.4V38h3v.9A1.1,1.1,0,0,1,70.42,39.31ZM67.91,24.41a1.41,1.41,0,0,1,1-.41h.17a1.41,1.41,0,0,1,1.41,1.41V34h-3V25.41A1.4,1.4,0,0,1,67.91,24.41Z"/><path d="M50.5,58H47a2,2,0,0,0-2,2V74a2,2,0,0,0,4,0V69h1.5a5.5,5.5,0,0,0,0-11Zm0,7H49V62h1.5a1.5,1.5,0,0,1,0,3Z"/><text x="0" y="115" fill="#000000" font-size="5px" font-weight="bold" font-family="'Helvetica Neue', Helvetica, Arial-Unicode, Arial, Sans-serif">Created by Blair Adams</text><text x="0" y="120" fill="#000000" font-size="5px" font-weight="bold" font-family="'Helvetica Neue', Helvetica, Arial-Unicode, Arial, Sans-serif">from the Noun Project</text></svg>