<svg xmlns="http://www.w3.org/2000/svg" data-name="Слой 1" viewBox="0 0 128 160" x="0px" y="0px"><title>ic_restroom_toilet</title><path d="M108.5,76a10,10,0,0,0-10-10H57.35l.15-2.9,3-55A2,2,0,0,0,60,6.63,2,2,0,0,0,58.5,6H45.83A6.18,6.18,0,0,0,33.47,6h-12a2,2,0,0,0-1.45.63,2,2,0,0,0-.55,1.48l3,55h0c0,4.69,1.23,8.16,3.69,10.61,4,4,10.21,4.3,17,4.3h2.36c0,.12,0,.23,0,.35v5.1c0,5.56,3,9.08,5.59,12.2,2.37,2.81,4.41,5.25,4.41,8.91a16.25,16.25,0,0,1-1.42,4.58c-1.18,2.94-2.64,6.61-2.64,10.6V126a2,2,0,0,0,2,2H92.56a2,2,0,0,0,2-2v-6.25c0-4.37-3.37-8.15-6.08-11.19-1.17-1.31-2.94-3.29-3-4,0-3.18,5.16-5.84,10.15-8.42C102,92.88,108.5,89.5,108.5,83.46v-5.1a4.46,4.46,0,0,0-.25-1.42A1.89,1.89,0,0,0,108.5,76Zm-4.34-2H49.84a6,6,0,0,1,5.66-4h43A6,6,0,0,1,104.16,74ZM39.65,4a2.18,2.18,0,0,1,2.17,2H37.47A2.19,2.19,0,0,1,39.65,4Zm16.74,6L53.61,61H26.39L23.61,10ZM45.33,74c-6.74,0-13.11.07-16.32-3.13A9.26,9.26,0,0,1,26.6,65H53.4l-.06,1.24A10,10,0,0,0,45.7,74Zm59.17,9.45c0,3.61-5.43,6.42-10.69,9.13-6,3.13-12.31,6.37-12.31,12,0,2.18,1.76,4.15,4,6.66s5.06,5.67,5.06,8.52V124H55.44v-4.25c0-3.22,1.25-6.35,2.35-9.11.92-2.29,1.71-4.27,1.71-6.07,0-5.12-2.84-8.5-5.35-11.49s-4.65-5.52-4.65-9.62v-5.1a.42.42,0,0,1,.15-.36h54.69a.39.39,0,0,1,.16.36Z"/><text x="0" y="143" fill="#000000" font-size="5px" font-weight="bold" font-family="'Helvetica Neue', Helvetica, Arial-Unicode, Arial, Sans-serif">Created by LAFS</text><text x="0" y="148" fill="#000000" font-size="5px" font-weight="bold" font-family="'Helvetica Neue', Helvetica, Arial-Unicode, Arial, Sans-serif">from the Noun Project</text></svg>