<svg xmlns="http://www.w3.org/2000/svg" data-name="Layer 1" viewBox="0 0 100 125" x="0px" y="0px"><title>parking</title><path d="M52.55,32.84h-12V67.61h8.34V53.74H52.6c6.68,0,10.9-4.12,10.9-10.55S59.83,32.84,52.55,32.84Zm-.71,13.67H48.93V40.08h2.91a2.89,2.89,0,0,1,3,3.16C54.86,45.2,53.75,46.51,51.84,46.51Z"/><path d="M50,12.69A37.54,37.54,0,1,0,87.55,50.22,37.58,37.58,0,0,0,50,12.69Zm0,69A31.46,31.46,0,1,1,81.48,50.22,31.49,31.49,0,0,1,50,81.68Z"/><text x="0" y="115" fill="#000000" font-size="5px" font-weight="bold" font-family="'Helvetica Neue', Helvetica, Arial-Unicode, Arial, Sans-serif">Created by Jamar Bromley</text><text x="0" y="120" fill="#000000" font-size="5px" font-weight="bold" font-family="'Helvetica Neue', Helvetica, Arial-Unicode, Arial, Sans-serif">from the Noun Project</text></svg>