<svg xmlns="http://www.w3.org/2000/svg" xmlns:xlink="http://www.w3.org/1999/xlink" version="1.1" x="0px" y="0px" viewBox="0 0 1024 1280" style="enable-background:new 0 0 1024 1024;" xml:space="preserve"><g><path d="M741.4,497.6c-6.3,0-12.6-0.9-18.7-2.8L106.1,306.4c-9.4-2.8-17.1-9.2-21.8-17.9c-4.6-8.7-5.6-18.6-2.7-28l47.9-156.7   c2.8-9.4,9.2-17.1,17.9-21.8c8.7-4.6,18.6-5.6,28-2.7L925,308.4c19.4,5.9,30.4,26.5,24.5,45.9l-3.1,10.4   c-4.7,15.2-14.7,28.1-28.2,36.2l-97.3,59.4l-45.8,27.9C764.8,494.4,753.1,497.6,741.4,497.6z M120.8,269.1l613.6,187.5   c6.6,2,13.9,1.1,20-2.6l45.8-27.9l97.5-59.5c5-3,8.8-8,10.6-13.7l2.2-7.3L166.8,118.5L120.8,269.1z"/><path d="M149.4,946.3H72.8V631.2h76.5c32.8,0,59.5,26.7,59.5,59.5v196.1c0.1,15.8-6.1,30.7-17.3,42   C180.3,940.1,165.3,946.3,149.4,946.3z M112.8,906.3h36.6c5.2,0,10.1-2,13.8-5.7c3.6-3.7,5.6-8.5,5.6-13.7V690.7   c0-10.8-8.7-19.5-19.5-19.5h-36.5V906.3z"/><path d="M314.8,810.6H188v-40h126.8c31.7,0,57.5-25.8,57.5-57.5V585.7h40v127.4C412.3,766.9,368.6,810.6,314.8,810.6z"/><path d="M737.1,662.3c-3.5,0-7.1-0.5-10.7-1.6l-313.5-95.8l4.7-18.5c0.6-2.5,1-5,1-7.2c0-14.6-11.8-26.4-26.4-26.4   c-11.4,0-21.4,7.2-25.1,17.9l-6.2,18.4L98.8,469c-19.3-5.9-30.3-26.5-24.4-45.9l47-153.8l612.7,187.1c6.7,2,14,1.1,20.1-2.6   l90.6-55.2l-72.5,237.6C767.5,652.1,752.9,662.3,737.1,662.3z M458.6,537.1L735,621.5l40.9-134l-0.9,0.6   c-15.8,9.6-34.9,12-52.5,6.7L148,319.3l-34.3,112.5l224.6,68.6c12.3-17,32.2-27.6,53.9-27.6C428.1,472.8,457.4,501.4,458.6,537.1z"/><path d="M824,614.8c-3,0-6-0.4-9-1.3l-70.7-21.6l49.9-163.3l70.9,21.6c16.2,5.2,25.4,22.7,20.5,39l0,0.1L854,592.5   C850,606,837.5,614.8,824,614.8z M794.2,565.3l24.1,7.3l26.5-86.8l-24.1-7.3L794.2,565.3z"/><rect x="207.2" y="216.5" transform="matrix(0.9564 0.2921 -0.2921 0.9564 81.4251 -72.4548)" width="152.3" height="40"/><path d="M392.2,605.7c-36.6,0-66.4-29.8-66.4-66.4c0-7,1.1-14.1,3.3-21.1l0.1-0.4c9.3-26.9,34.5-45,62.9-45   c36.6,0,66.4,29.8,66.4,66.4c0,6.1-0.8,12-2.3,17.5C448.5,585.6,422.2,605.7,392.2,605.7z M367.2,530.6c-0.9,2.9-1.4,5.9-1.4,8.7   c0,14.6,11.8,26.4,26.4,26.4c11.9,0,22.4-8,25.5-19.5l0.1-0.3c0.6-2,0.8-4.3,0.8-6.8c0-14.6-11.8-26.4-26.4-26.4   C381,512.8,371,519.9,367.2,530.6z"/></g><text x="0" y="1039" fill="#000000" font-size="5px" font-weight="bold" font-family="'Helvetica Neue', Helvetica, Arial-Unicode, Arial, Sans-serif">Created by IconPai</text><text x="0" y="1044" fill="#000000" font-size="5px" font-weight="bold" font-family="'Helvetica Neue', Helvetica, Arial-Unicode, Arial, Sans-serif">from the Noun Project</text></svg>