<svg xmlns="http://www.w3.org/2000/svg" xmlns:xlink="http://www.w3.org/1999/xlink" viewBox="0 0 62 67.5" version="1.1" x="0px" y="0px"><title>dining_room</title><desc>Created with Sketch.</desc><g stroke="none" stroke-width="1" fill="none" fill-rule="evenodd"><g transform="translate(-239.000000, -426.000000)" fill="#000000"><g transform="translate(239.000000, 426.000000)"><path d="M46,36 L55,36 C55.5522847,36 56,35.5522847 56,35 C56,34.4477153 55.5522847,34 55,34 L7,34 C6.44771525,34 6,34.4477153 6,35 C6,35.5522847 6.44771525,36 7,36 L16,36 L16,53 C16,53.5522847 16.4477153,54 17,54 C17.5522847,54 18,53.5522847 18,53 L18,36 L44,36 L44,53 C44,53.5522847 44.4477153,54 45,54 C45.5522847,54 46,53.5522847 46,53 L46,36 L46,36 Z"/><path d="M2,44 L10,44 L10,53 C10,53.5522847 10.4477153,54 11,54 C11.5522847,54 12,53.5522847 12,53 L12,43 C12,42.7238576 11.8880712,42.4738576 11.7071068,42.2928932 C11.5261424,42.1119288 11.2761424,42 11,42 L2,42 L2,30 C2,29.4477153 1.55228475,29 1,29 C0.44771525,29 0,29.4477153 0,30 L0,53 C0,53.5522847 0.44771525,54 1,54 C1.55228475,54 2,53.5522847 2,53 L2,44 L2,44 Z"/><path d="M52,44 L60,44 L60,53 C60,53.5522847 60.4477153,54 61,54 C61.5522847,54 62,53.5522847 62,53 L62,43 C62,42.7238576 61.8880712,42.4738576 61.7071068,42.2928932 C61.5261424,42.1119288 61.2761424,42 61,42 L52,42 L52,30 C52,29.4477153 51.5522847,29 51,29 C50.4477153,29 50,29.4477153 50,30 L50,53 C50,53.5522847 50.4477153,54 51,54 C51.5522847,54 52,53.5522847 52,53 L52,44 L52,44 Z" transform="translate(56.000000, 41.500000) scale(-1, 1) translate(-56.000000, -41.500000) "/><path d="M32,1 C32,0.44771525 31.5522847,-5.55111512e-15 31,0 C30.4477153,5.66213743e-15 30,0.44771525 30,1 L30,8.03861273 C25.8206909,8.35913632 22,10.6261997 22,13 C22,15.4237579 24.8482547,16 31,16 C37.1517453,16 40,15.4237579 40,13 C40,10.6261997 36.1793091,8.35913632 32,8.03861273 L32,1 Z M31,14 C26.4295713,14 24,13.5084635 24,13 C24,12.6321014 24.6619527,11.8919173 25.8235055,11.2557512 C27.2489376,10.4750622 29.1005764,10 31,10 C32.8994236,10 34.7510624,10.4750622 36.1764945,11.2557512 C37.3380473,11.8919173 38,12.6321014 38,13 C38,13.5084635 35.5704287,14 31,14 L31,14 Z"/></g></g></g><text x="0" y="69" fill="#000000" font-size="5px" font-weight="bold" font-family="'Helvetica Neue', Helvetica, Arial-Unicode, Arial, Sans-serif">Created by Andrejs Kirma</text><text x="0" y="74" fill="#000000" font-size="5px" font-weight="bold" font-family="'Helvetica Neue', Helvetica, Arial-Unicode, Arial, Sans-serif">from the Noun Project</text></svg>