<svg xmlns="http://www.w3.org/2000/svg" xmlns:xlink="http://www.w3.org/1999/xlink" version="1.1" x="0px" y="0px" viewBox="0 0 55 68.75" style="enable-background:new 0 0 55 55;" xml:space="preserve"><g><path d="M20.5,3.5h-16c-0.5522065,0-1,0.4477999-1,1v23c0,0.5522003,0.4477935,1,1,1h16c0.5521927,0,1-0.4477997,1-1v-23   C21.5,3.9477999,21.0521927,3.5,20.5,3.5z M19.5,26.5h-14v-21h14V26.5z"/><path d="M20.5,30.5h-16c-0.5522065,0-1,0.4477997-1,1v19c0,0.5522003,0.4477935,1,1,1h16c0.5521927,0,1-0.4477997,1-1v-19   C21.5,30.9477997,21.0521927,30.5,20.5,30.5z M19.5,49.5h-14v-17h14V49.5z"/><path d="M50.5,30.5h-26c-0.5522079,0-1,0.4477997-1,1v19c0,0.5522003,0.4477921,1,1,1h26c0.5521927,0,1-0.4477997,1-1v-19   C51.5,30.9477997,51.0521927,30.5,50.5,30.5z M49.5,49.5h-24v-17h24V49.5z"/><path d="M27.5,22.5h20c0.9742928,0,1.3721924-1.2595997,0.5736923-1.8188L42.5,16.7756996V4.5c0-0.5522001-0.4478073-1-1-1h-8   c-0.5522079,0-1,0.4477999-1,1v12.2752991L26.9262924,20.6812C26.1283932,21.2399998,26.5250931,22.5,27.5,22.5z M34.5,5.5h6v11h-6   V5.5z M33.5233917,18.5h7.9527016l2.8540001,2H30.6693935L33.5233917,18.5z"/><path d="M29.5,37.5h16c0.5521927,0,1-0.4477997,1-1s-0.4478073-1-1-1h-16c-0.5522079,0-1,0.4477997-1,1S28.9477921,37.5,29.5,37.5z   "/><path d="M16.5,43c0.5521927,0,1-0.4477997,1-1v-2c0-0.5522003-0.4478073-1-1-1c-0.552207,0-1,0.4477997-1,1v2   C15.5,42.5522003,15.947793,43,16.5,43z"/><path d="M16.5,19c0.5521927,0,1-0.4477997,1-1v-4c0-0.5522003-0.4478073-1-1-1c-0.552207,0-1,0.4477997-1,1v4   C15.5,18.5522003,15.947793,19,16.5,19z"/></g><text x="0" y="70" fill="#000000" font-size="5px" font-weight="bold" font-family="'Helvetica Neue', Helvetica, Arial-Unicode, Arial, Sans-serif">Created by DinosoftLab</text><text x="0" y="75" fill="#000000" font-size="5px" font-weight="bold" font-family="'Helvetica Neue', Helvetica, Arial-Unicode, Arial, Sans-serif">from the Noun Project</text></svg>